<?xml version="1.0" encoding="UTF-8"?>
<!-- Do not edit this file with editors other than draw.io -->
<!DOCTYPE svg PUBLIC "-//W3C//DTD SVG 1.1//EN" "http://www.w3.org/Graphics/SVG/1.1/DTD/svg11.dtd">
<svg xmlns="http://www.w3.org/2000/svg" style="background: transparent; background-color: transparent; color-scheme: light dark;" xmlns:xlink="http://www.w3.org/1999/xlink" version="1.1" width="112px" height="107px" viewBox="0 0 112 107" content="&lt;mxfile host=&quot;Electron&quot; agent=&quot;Mozilla/5.0 (Windows NT 10.0; Win64; x64) AppleWebKit/537.36 (KHTML, like Gecko) draw.io/29.3.0 Chrome/140.0.7339.249 Electron/38.7.2 Safari/537.36&quot; version=&quot;29.3.0&quot; scale=&quot;1&quot; border=&quot;0&quot;&gt;&#10;  &lt;diagram name=&quot;Página-1&quot; id=&quot;0A2b_8wvWjb_VaTbtYxN&quot;&gt;&#10;    &lt;mxGraphModel dx=&quot;358&quot; dy=&quot;393&quot; grid=&quot;0&quot; gridSize=&quot;10&quot; guides=&quot;1&quot; tooltips=&quot;1&quot; connect=&quot;1&quot; arrows=&quot;1&quot; fold=&quot;1&quot; page=&quot;1&quot; pageScale=&quot;1&quot; pageWidth=&quot;827&quot; pageHeight=&quot;1169&quot; math=&quot;0&quot; shadow=&quot;0&quot;&gt;&#10;      &lt;root&gt;&#10;        &lt;mxCell id=&quot;0&quot; /&gt;&#10;        &lt;mxCell id=&quot;1&quot; parent=&quot;0&quot; /&gt;&#10;        &lt;mxCell id=&quot;2&quot; parent=&quot;1&quot; style=&quot;aspect=fixed;sketch=0;html=1;dashed=0;whitespace=wrap;verticalLabelPosition=bottom;verticalAlign=top;fillColor=#2875E2;strokeColor=#ffffff;points=[[0.005,0.63,0],[0.1,0.2,0],[0.9,0.2,0],[0.5,0,0],[0.995,0.63,0],[0.72,0.99,0],[0.5,1,0],[0.28,0.99,0]];shape=mxgraph.kubernetes.icon2;kubernetesLabel=1;prIcon=api&quot; value=&quot;&quot; vertex=&quot;1&quot;&gt;&#10;          &lt;mxGeometry height=&quot;106&quot; width=&quot;110.42&quot; x=&quot;470&quot; y=&quot;570&quot; as=&quot;geometry&quot; /&gt;&#10;        &lt;/mxCell&gt;&#10;      &lt;/root&gt;&#10;    &lt;/mxGraphModel&gt;&#10;  &lt;/diagram&gt;&#10;&lt;/mxfile&gt;&#10;"><defs/><g><g data-cell-id="0"><g data-cell-id="1"><g data-cell-id="P6NQ1QN_hpMjHPVj3jb5-12"/><g data-cell-id="P6NQ1QN_hpMjHPVj3jb5-13"/><g data-cell-id="P6NQ1QN_hpMjHPVj3jb5-14"/><g data-cell-id="P6NQ1QN_hpMjHPVj3jb5-15"/><g data-cell-id="P6NQ1QN_hpMjHPVj3jb5-17"/><g data-cell-id="P6NQ1QN_hpMjHPVj3jb5-18"/><g data-cell-id="P6NQ1QN_hpMjHPVj3jb5-20"/><g data-cell-id="P6NQ1QN_hpMjHPVj3jb5-21"/><g data-cell-id="P6NQ1QN_hpMjHPVj3jb5-22"/><g data-cell-id="NIJMNRgj0KfISq2yDV6z-1"/><g data-cell-id="NIJMNRgj0KfISq2yDV6z-3"/><g data-cell-id="NIJMNRgj0KfISq2yDV6z-4"/><g data-cell-id="NIJMNRgj0KfISq2yDV6z-5"/><g data-cell-id="BPBMw0onGqVsPlD7Hna4-1"><g><path d="M 54.82 0.06 C 53.85 0.12 52.88 0.36 52.03 0.79 L 14.08 18.89 C 12.08 19.86 10.62 21.67 10.14 23.79 L 0.76 64.53 C 0.33 66.41 0.7 68.41 1.73 70.04 C 1.91 70.22 2.03 70.4 2.15 70.65 L 28.42 103.28 C 29.81 104.97 31.93 106 34.11 106 L 76.25 106 C 78.43 106 80.54 104.97 81.94 103.28 L 108.21 70.59 C 109.54 68.89 110.09 66.65 109.6 64.53 L 100.22 23.79 C 99.73 21.67 98.28 19.86 96.28 18.89 L 58.33 0.79 C 57.24 0.24 56.03 0 54.82 0.06 Z" fill="#ffffff" stroke="none" pointer-events="all" style="fill: rgb(255, 255, 255);"/><path d="M 54.84 3.24 C 53.93 3.29 53.02 3.52 52.22 3.92 L 16.54 20.93 C 14.67 21.84 13.3 23.55 12.84 25.54 L 4.02 63.84 C 3.63 65.6 3.97 67.48 4.93 69.02 C 5.11 69.19 5.22 69.36 5.33 69.59 L 30.03 100.26 C 31.34 101.85 33.33 102.82 35.38 102.82 L 74.98 102.82 C 77.03 102.82 79.02 101.85 80.33 100.26 L 105.03 69.53 C 106.28 67.94 106.79 65.83 106.34 63.84 L 97.52 25.54 C 97.06 23.55 95.7 21.84 93.82 20.93 L 58.14 3.92 C 57.12 3.41 55.98 3.18 54.84 3.24 Z" fill="#2875e2" stroke="none" pointer-events="all" style="fill: rgb(40, 117, 226);"/><path d="M 55.24 21.22 C 54.59 21.2 36.63 30.03 36.4 30.48 C 35.83 31.57 31.75 50.42 31.98 50.83 C 32.12 51.07 35.07 54.8 38.53 59.12 L 44.81 66.98 L 55.16 66.99 L 65.51 66.99 L 72.09 58.77 L 78.67 50.55 L 76.37 40.45 L 73.85 30.15 C 67.71 27.04 61.5 24.07 55.24 21.22 Z M 56.33 30.45 C 57.21 30.49 57.29 31.81 59.15 31.95 C 61.58 32.13 61.32 29.87 63.18 31.44 C 65.04 33.01 62.77 33.13 63.34 35.5 C 63.92 37.86 65.99 36.92 65.07 39.17 C 64.15 41.43 63.33 39.3 61.26 40.58 C 59.19 41.86 60.73 43.53 58.3 43.35 C 55.87 43.17 57.65 41.74 55.79 40.17 C 53.92 38.59 52.8 40.57 52.23 38.21 C 51.65 35.84 53.56 37.08 54.48 34.83 C 55.4 32.58 53.17 32.13 55.24 30.84 C 55.51 30.69 55.72 30.58 55.91 30.52 C 56.07 30.46 56.21 30.44 56.33 30.45 Z M 58.76 33.12 C 58.41 33.11 58.06 33.16 57.72 33.27 C 55.85 33.83 54.8 35.79 55.36 37.66 C 55.92 39.53 57.89 40.58 59.75 40.01 C 61.62 39.45 62.67 37.49 62.11 35.62 C 61.66 34.14 60.31 33.13 58.76 33.12 Z M 44.83 39.18 C 45.06 39.19 45.29 39.23 45.52 39.31 C 47.75 39.99 45.48 41.17 47.07 42.88 C 48.66 44.59 50 42.41 50.52 44.69 C 51.04 46.96 48.89 45.58 48.21 47.82 C 47.52 50.05 50.08 50.12 48.37 51.71 C 46.66 53.31 46.77 50.75 44.5 51.27 C 42.22 51.8 43.44 54.05 41.2 53.36 C 38.97 52.68 41.24 51.5 39.65 49.79 C 38.06 48.08 36.72 50.26 36.2 47.98 C 35.68 45.7 37.83 47.08 38.51 44.84 C 39.2 42.61 36.64 42.54 38.35 40.95 C 40.06 39.36 39.94 41.91 42.22 41.39 C 44.21 40.93 43.53 39.15 44.82 39.18 Z M 61.44 41.63 C 61.65 41.63 61.91 41.68 62.23 41.81 C 64.81 42.81 61.42 44.35 63.41 46.26 C 65.41 48.17 66.8 44.71 67.92 47.24 C 69.03 49.77 65.54 48.46 65.6 51.22 C 65.66 53.99 69.09 52.52 68.09 55.1 C 67.09 57.67 65.55 54.28 63.64 56.28 C 61.73 58.28 65.19 59.67 62.66 60.78 C 60.13 61.89 61.44 58.4 58.68 58.47 C 55.91 58.53 57.38 61.95 54.8 60.95 C 52.22 59.95 55.61 58.41 53.61 56.5 C 51.62 54.59 50.23 58.05 49.12 55.52 C 48 52.99 51.49 54.3 51.43 51.54 C 51.37 48.78 47.94 50.24 48.94 47.66 C 49.94 45.08 51.48 48.48 53.4 46.48 C 55.31 44.48 51.85 43.1 54.37 41.98 C 56.9 40.86 55.59 44.35 58.36 44.29 C 60.77 44.24 59.95 41.61 61.44 41.62 Z M 43.36 42.81 C 41.42 42.81 39.84 44.39 39.84 46.34 C 39.84 48.28 41.42 49.86 43.36 49.86 C 45.31 49.86 46.89 48.28 46.89 46.34 C 46.89 44.39 45.31 42.82 43.36 42.81 Z M 58.52 46.19 C 55.65 46.19 53.33 48.51 53.33 51.38 C 53.33 54.25 55.65 56.57 58.52 56.57 C 61.39 56.57 63.72 54.25 63.72 51.38 C 63.72 48.5 61.39 46.18 58.52 46.18 Z" fill="#ffffff" stroke="none" pointer-events="all" style="fill: rgb(255, 255, 255);"/><g fill="#ffffff" font-family="Arial, Helvetica" text-anchor="middle" font-size="21.200000000000003px" style="fill: rgb(255, 255, 255);"><text x="55.21" y="89.1">api</text></g></g></g></g></g></g></svg>